<svg xmlns="http://www.w3.org/2000/svg" width="48" height="48" viewBox="0 0 48 48">
    <g fill="none" fill-rule="evenodd" transform="translate(4 10)">
        <rect width="40" height="28" fill="#1C8AFF" rx="2"/>
        <rect width="29" height="2" x="2" y="20" fill="#FFF" opacity=".3" rx="1"/>
        <rect width="13" height="7" x="2" y="2" fill="#F7DA98" rx="1"/>
        <rect width="4" height="1" x="3" y="3" fill="#EFB531" rx=".5"/>
        <rect width="6" height="1" x="8" y="3" fill="#EFB531" rx=".5"/>
        <rect width="5" height="1" x="6" y="5" fill="#EFB531" rx=".5" transform="rotate(90 8.5 5.5)"/>
        <rect width="4" height="1" x="3" y="5" fill="#EFB531" rx=".5"/>
        <rect width="4" height="1" x="10" y="5" fill="#EFB531" rx=".5"/>
        <rect width="4" height="1" x="3" y="7" fill="#EFB531" rx=".5"/>
        <rect width="4" height="1" x="10" y="7" fill="#EFB531" rx=".5"/>
        <rect width="6" height="4" x="2" y="14" fill="#FFF" opacity=".3" rx="1"/>
        <rect width="6" height="4" x="12" y="14" fill="#FFF" opacity=".3" rx="1"/>
        <rect width="6" height="4" x="22" y="14" fill="#FFF" opacity=".3" rx="1"/>
        <rect width="6" height="4" x="32" y="14" fill="#FFF" opacity=".3" rx="1"/>
    </g>
</svg>
