<svg xmlns="http://www.w3.org/2000/svg" width="104" height="25" viewBox="0 0 104 25">
    <g fill="#768493" fill-rule="evenodd">
        <path d="M14.257 14.144l8.84-5.416a.648.648 0 0 0 .024-1.09l-8.847-5.98a.636.636 0 0 0-.658-.034.648.648 0 0 0-.34.57v11.394a.648.648 0 0 0 .327.572c.204.116.455.11.654-.016zM23.078 10.51l-9.528 5.84a.648.648 0 0 0-.31.55v7.219c0 .238.129.456.336.57.208.112.46.101.657-.03l9.526-6.33a.648.648 0 0 0 .289-.54v-6.724a.648.648 0 0 0-.325-.562.636.636 0 0 0-.645.008zM0 17.5V6.71c0-.254.147-.485.376-.59l9.874-4.514a.636.636 0 0 1 .612.045.648.648 0 0 1 .294.543v21.959c0 .239-.13.458-.34.57a.636.636 0 0 1-.657-.033L.284 18.039A.648.648 0 0 1 0 17.5z"/>
        <path fill-rule="nonzero" d="M39.95 7.974a4.196 4.196 0 0 1 1.62 1.742c.403.817.603 1.722.583 2.635a5.13 5.13 0 0 1-.641 2.586 4.247 4.247 0 0 1-1.77 1.699 5.47 5.47 0 0 1-2.563.588 4.31 4.31 0 0 1-1.73-.366 3.817 3.817 0 0 1-1.381-1.002v5.553h-2.426V7.601h2.099l.213 1.371a5.457 5.457 0 0 1 1.651-1.175 4.774 4.774 0 0 1 2.04-.43 4.453 4.453 0 0 1 2.306.607zm-1.759 6.935c.445-.245.82-.601 1.091-1.034.276-.443.418-.957.41-1.48a2.937 2.937 0 0 0-.809-2.123 2.664 2.664 0 0 0-1.997-.839 2.957 2.957 0 0 0-1.78.522 2.936 2.936 0 0 0-1.047 1.459v1.851c.135.582.467 1.098.94 1.46.489.379 1.091.579 1.708.566.52.004 1.03-.128 1.484-.384v.002zM53.776 7.776v9.211h-2.417V15.66a5.057 5.057 0 0 1-1.337 1.078c-.6.337-1.278.506-1.965.49a4.911 4.911 0 0 1-2.349-.555 4.022 4.022 0 0 1-1.64-1.644 5.355 5.355 0 0 1-.604-2.636 5.41 5.41 0 0 1 .625-2.646 4.445 4.445 0 0 1 3.96-2.384c1.482 0 2.59.552 3.325 1.655l.17-1.241h2.232zm-3.378 6.935c.468-.363.805-.872.958-1.448v-2.004a2.533 2.533 0 0 0-1.001-1.371 2.915 2.915 0 0 0-1.708-.524 2.617 2.617 0 0 0-1.942.817 2.848 2.848 0 0 0-.798 2.08 2.95 2.95 0 0 0 .388 1.508c.25.44.606.806 1.036 1.067.423.259.909.395 1.403.392a2.708 2.708 0 0 0 1.664-.517z"/>
        <path d="M65.66 7.776l-5.892 13.633h-2.372l2.135-4.814-4.222-8.82h2.712l2.719 6.098 2.718-6.097z"/>
        <path fill-rule="nonzero" d="M75.58 7.974a4.196 4.196 0 0 1 1.618 1.742c.403.817.603 1.722.583 2.635a5.108 5.108 0 0 1-.64 2.586 4.23 4.23 0 0 1-1.758 1.7 5.47 5.47 0 0 1-2.563.59 4.31 4.31 0 0 1-1.747-.37 3.8 3.8 0 0 1-1.381-1.001v5.553h-2.424V7.601h2.093l.213 1.371a5.457 5.457 0 0 1 1.651-1.175 4.774 4.774 0 0 1 2.04-.43 4.453 4.453 0 0 1 2.314.607zm-1.76 6.935c.445-.245.82-.601 1.091-1.034.275-.444.417-.958.41-1.48a2.937 2.937 0 0 0-.81-2.123 2.664 2.664 0 0 0-1.996-.839 2.957 2.957 0 0 0-1.781.522 2.923 2.923 0 0 0-1.046 1.459v1.851c.135.582.467 1.098.94 1.46.488.379 1.09.579 1.708.566.519.004 1.03-.128 1.484-.384v.002z"/>
        <path d="M81.62 0v16.987h-2.415V0zM92.606 7.776v9.211h-2.18l-.152-1.655a3.607 3.607 0 0 1-1.401 1.491 4.029 4.029 0 0 1-2.116.556 2.938 2.938 0 0 1-2.083-.773 2.671 2.671 0 0 1-.854-1.992V7.776h2.418v5.965c.042 1.018.54 1.533 1.494 1.548.705 0 1.292-.327 1.76-.98.485-.723.73-1.583.696-2.456V7.776h2.418zM100.481 16.987l-2.308-3.05-2.136 3.05H93.6l3.365-4.616-3.474-4.595h2.99l2.223 2.961 1.855-2.961h2.415l-3.139 4.442 3.56 4.77z"/>
    </g>
</svg>
