<svg xmlns="http://www.w3.org/2000/svg" xmlns:xlink="http://www.w3.org/1999/xlink" width="322" height="336" viewBox="0 0 322 336">
    <defs>
        <filter id="a" width="118.1%" height="118.3%" x="-9%" y="-9.1%" filterUnits="objectBoundingBox">
            <feOffset dy="10" in="SourceAlpha" result="shadowOffsetOuter1"/>
            <feGaussianBlur in="shadowOffsetOuter1" result="shadowBlurOuter1" stdDeviation="3"/>
            <feColorMatrix in="shadowBlurOuter1" result="shadowMatrixOuter1" values="0 0 0 0 0.925490196 0 0 0 0 0.933333333 0 0 0 0 0.945098039 0 0 0 0.42463396 0"/>
            <feMerge>
                <feMergeNode in="shadowMatrixOuter1"/>
                <feMergeNode in="SourceGraphic"/>
            </feMerge>
        </filter>
        <ellipse id="b" cx="33.255" cy="33.237" rx="33.255" ry="33.237"/>
        <rect id="d" width="92.484" height="69.985" rx="6.651"/>
    </defs>
    <g fill="none" fill-rule="evenodd" filter="url(#a)" transform="translate(-10 -18)">
        <g transform="translate(127.319 135.79)">
            <ellipse cx="42.756" cy="42.731" fill="#FFF" rx="42.756" ry="42.731"/>
            <g transform="translate(9.501 9.496)">
                <mask id="c" fill="#fff">
                    <use xlink:href="#b"/>
                </mask>
                <use fill="#D8D8D8" xlink:href="#b"/>
                <g mask="url(#c)">
                    <g transform="translate(-13.302 -1.9)">
                        <mask id="e" fill="#fff">
                            <use xlink:href="#d"/>
                        </mask>
                        <use fill="#D8D8D8" xlink:href="#d"/>
                        <path fill="#DA3D2A" d="M0 0h92.484v23.328H0z" mask="url(#e)"/>
                        <path fill="#FFE900" d="M0 23.328h92.484v23.328H0z" mask="url(#e)"/>
                        <path fill="#369E55" d="M0 46.657h92.484v23.328H0z" mask="url(#e)"/>
                        <path fill="#000" d="M46.242 38.66l-5.096 3.41 1.639-5.944-4.789-3.837 6.11-.264 2.136-5.78 2.137 5.78 6.109.264-4.789 3.837 1.64 5.944z" mask="url(#e)"/>
                    </g>
                </g>
            </g>
        </g>
        <g transform="translate(16.152 193.714)">
            <ellipse cx="49.407" cy="49.378" fill="#FFF" rx="49.407" ry="49.378"/>
            <circle cx="40.094" cy="40.094" r="40.094" fill="#D93131" transform="translate(9.501 9.496)"/>
            <text fill="#FFF" font-family="Times-Roman, Times" font-size="39.906" letter-spacing="-1.171" transform="translate(9.501 9.496)">
                <tspan x="15.035" y="52.64">PM</tspan>
            </text>
        </g>
        <g transform="translate(121.618 18.042)">
            <ellipse cx="49.407" cy="49.378" fill="#FFF" rx="49.407" ry="49.378"/>
            <g transform="translate(9.501 9.496)">
                <ellipse cx="39.906" cy="39.882" fill="#F7931A" rx="39.906" ry="39.882"/>
                <path fill="#FFF" fill-rule="nonzero" d="M57.836 34.947c.783-5.225-3.2-8.034-8.642-9.908l1.766-7.08-4.31-1.071-1.721 6.892c-1.132-.284-2.295-.549-3.454-.813l1.733-6.937-4.31-1.074-1.766 7.077c-.937-.215-1.86-.424-2.753-.649l.005-.022-5.946-1.483-1.147 4.601s3.2.733 3.132.778c1.746.436 2.06 1.59 2.008 2.508l-2.01 8.063c.12.03.274.075.449.142l-.457-.112-2.818 11.297c-.215.528-.756 1.323-1.978 1.022.045.062-3.133-.78-3.133-.78l-2.14 4.93 5.612 1.399c1.043.261 2.065.535 3.07.792l-1.783 7.16 4.308 1.07 1.765-7.078c1.178.316 2.32.61 3.437.89l-1.76 7.049 4.31 1.072 1.783-7.144c7.352 1.39 12.88.83 15.206-5.816 1.876-5.349-.092-8.437-3.96-10.449 2.818-.648 4.938-2.5 5.504-6.326zM47.984 48.75c-1.33 5.352-10.345 2.458-13.268 1.733l2.369-9.485c2.923.73 12.293 2.174 10.9 7.752zM49.32 34.87c-1.215 4.868-8.717 2.393-11.15 1.787l2.146-8.6c2.432.606 10.27 1.735 9.004 6.813z"/>
            </g>
        </g>
        <g transform="translate(227.083 193.714)">
            <ellipse cx="49.407" cy="49.378" fill="#FFF" rx="49.407" ry="49.378"/>
            <g transform="translate(9.501 9.496)">
                <circle cx="40.094" cy="40.094" r="40.094" fill="#627EEA"/>
                <g fill="#FFF">
                    <path fill-opacity=".602" d="M41.342 10.023V32.25l18.786 8.395z"/>
                    <path d="M41.342 10.023l-18.79 30.622 18.79-8.395z"/>
                    <path fill-opacity=".602" d="M41.342 55.049v15.103L60.14 44.143z"/>
                    <path d="M41.342 70.152V55.046l-18.79-10.903z"/>
                    <path fill-opacity=".2" d="M41.342 51.553l18.786-10.908-18.786-8.39z"/>
                    <path fill-opacity=".602" d="M22.553 40.645l18.789 10.908V32.255z"/>
                </g>
            </g>
        </g>
        <g transform="translate(131.12 262.084)">
            <ellipse cx="38.006" cy="37.983" fill="#FFF" rx="38.006" ry="37.983"/>
            <g transform="translate(9.501 9.496)">
                <circle cx="28.583" cy="28.583" r="28.583" fill="#BFBBBB"/>
                <path fill="#FFF" d="M18.627 34.324l-2.55.99 1.23-4.929 2.58-1.036 3.717-15.058h9.162L30.053 25.36l2.519-1.02-1.215 4.913-2.55 1.02-1.514 6.222h13.795l-1.56 6.379h-23z"/>
            </g>
        </g>
        <g transform="translate(237.535 85.462)">
            <ellipse cx="38.006" cy="37.983" fill="#FFF" rx="38.006" ry="37.983"/>
            <g transform="translate(9.501 9.496)">
                <circle cx="28.583" cy="28.583" r="28.583" fill="#1A53F0"/>
                <path fill="#FFF" fill-rule="nonzero" d="M21.18 30.887a7.776 7.776 0 0 0-7.771 7.78 7.776 7.776 0 0 0 7.769 7.78 7.776 7.776 0 0 0 7.774-7.78 7.776 7.776 0 0 0-7.772-7.78zm0 13.207a5.422 5.422 0 0 1-5.418-5.423 5.422 5.422 0 0 1 5.418-5.426 5.422 5.422 0 0 1 5.42 5.426 5.43 5.43 0 0 1-5.42 5.423zm16.603-29.803a7.776 7.776 0 0 0-7.773 7.78 7.776 7.776 0 0 0 7.77 7.78 7.776 7.776 0 0 0 7.775-7.78 7.776 7.776 0 0 0-7.774-7.78h.002zm0 13.207a5.422 5.422 0 0 1-5.42-5.423 5.422 5.422 0 0 1 5.42-5.426 5.422 5.422 0 0 1 5.418 5.426 5.43 5.43 0 0 1-5.418 5.423zM21.18 14.291a7.785 7.785 0 0 0-3.03 14.953 7.773 7.773 0 0 0 9.447-2.78 7.789 7.789 0 0 0-.849-9.82h2.203v-2.353H21.18zm5.42 7.78a5.422 5.422 0 0 1-5.42 5.424 5.422 5.422 0 0 1-5.418-5.424 5.422 5.422 0 0 1 5.418-5.423A5.43 5.43 0 0 1 26.6 22.07H26.6z"/>
            </g>
        </g>
        <g transform="translate(27.554 85.462)">
            <ellipse cx="38.006" cy="37.983" fill="#FFF" rx="38.006" ry="37.983"/>
            <g transform="translate(9.501 9.496)">
                <ellipse cx="28.343" cy="28.326" fill="#8DC351" rx="28.343" ry="28.326"/>
                <path fill="#FFF" fill-rule="nonzero" d="M37.567 18.65c-1.375-3.492-4.822-3.807-8.836-3.028l-1.43-4.98-3.032.869 1.392 4.85c-.797.227-1.609.479-2.415.727l-1.399-4.883-3.03.868 1.425 4.98c-.652.201-1.293.4-1.922.58l-.005-.017-4.184 1.198.93 3.24s2.228-.687 2.202-.634c1.229-.352 1.833.246 2.125.829l1.63 5.672c.083-.023.195-.051.326-.07l-.32.091 2.28 7.95c.056.401.006 1.083-.851 1.33.048.024-2.207.63-2.207.63l.437 3.795 3.947-1.133c.735-.207 1.461-.402 2.172-.602l1.447 5.037 3.03-.868-1.43-4.984c.812-.215 1.622-.44 2.43-.672l1.42 4.962 3.035-.87-1.442-5.027c5.015-1.755 8.216-4.061 7.286-8.976-.748-3.955-3.054-5.155-6.149-5.02 1.503-1.4 2.15-3.29 1.138-5.843v-.002zm-1.152 11.985c1.08 3.765-5.491 5.185-7.546 5.776l-1.915-6.674c2.055-.59 8.333-3.027 9.46.9l.001-.002zm-4.113-9.012c.981 3.426-4.512 4.568-6.225 5.058l-1.736-6.052c1.711-.49 6.935-2.576 7.96.996v-.002z"/>
            </g>
        </g>
    </g>
</svg>
