<svg xmlns="http://www.w3.org/2000/svg" width="145" height="35" viewBox="0 0 145 35">
    <g fill="#FFF" fill-rule="evenodd">
        <path d="M19.96 19.802l12.376-7.582a.908.908 0 0 0 .033-1.527L19.983 2.32a.89.89 0 0 0-.921-.047.907.907 0 0 0-.475.799v15.952a.907.907 0 0 0 .457.8.89.89 0 0 0 .915-.022zM32.31 14.715L18.97 22.89a.907.907 0 0 0-.434.772v10.105c0 .333.18.64.471.798a.89.89 0 0 0 .92-.04l13.336-8.862a.907.907 0 0 0 .404-.758v-9.413a.907.907 0 0 0-.455-.787.89.89 0 0 0-.902.011zM0 24.5V9.393c0-.355.206-.677.526-.824l13.825-6.321a.89.89 0 0 1 .856.063.907.907 0 0 1 .411.76v30.743c0 .334-.183.641-.475.798a.89.89 0 0 1-.921-.046L.398 25.254A.907.907 0 0 1 0 24.5z"/>
        <path fill-rule="nonzero" d="M55.931 11.164a5.874 5.874 0 0 1 2.266 2.438 7.954 7.954 0 0 1 .817 3.69 7.182 7.182 0 0 1-.897 3.62 5.946 5.946 0 0 1-2.479 2.378 7.658 7.658 0 0 1-3.587.824 6.034 6.034 0 0 1-2.422-.513 5.344 5.344 0 0 1-1.934-1.403v7.775h-3.397V10.642h2.94l.298 1.919a7.64 7.64 0 0 1 2.311-1.645 6.683 6.683 0 0 1 2.855-.603 6.234 6.234 0 0 1 3.23.85zm-2.463 9.71a4.184 4.184 0 0 0 1.527-1.449c.386-.62.586-1.34.574-2.073a4.112 4.112 0 0 0-1.133-2.972 3.73 3.73 0 0 0-2.795-1.174 4.14 4.14 0 0 0-2.493.73 4.111 4.111 0 0 0-1.465 2.043v2.592a3.59 3.59 0 0 0 1.315 2.043 3.774 3.774 0 0 0 2.392.793 4.156 4.156 0 0 0 2.078-.537v.003zM75.286 10.886v12.896h-3.384v-1.859a7.08 7.08 0 0 1-1.871 1.509c-.84.472-1.79.709-2.751.685a6.875 6.875 0 0 1-3.289-.776 5.631 5.631 0 0 1-2.296-2.302 7.497 7.497 0 0 1-.846-3.69 7.575 7.575 0 0 1 .876-3.705 6.223 6.223 0 0 1 5.543-3.337c2.075 0 3.627.772 4.655 2.317l.24-1.738h3.123zm-4.73 9.71a3.804 3.804 0 0 0 1.343-2.028v-2.806a3.546 3.546 0 0 0-1.402-1.919 4.081 4.081 0 0 0-2.392-.733 3.664 3.664 0 0 0-2.717 1.143 3.988 3.988 0 0 0-1.119 2.912 4.13 4.13 0 0 0 .545 2.112 4.14 4.14 0 0 0 1.45 1.494 3.73 3.73 0 0 0 1.964.549 3.79 3.79 0 0 0 2.329-.724z"/>
        <path d="M91.924 10.886l-8.249 19.087h-3.321l2.99-6.74-5.911-12.347h3.797l3.806 8.536 3.806-8.536z"/>
        <path fill-rule="nonzero" d="M105.811 11.164a5.874 5.874 0 0 1 2.266 2.438 7.954 7.954 0 0 1 .817 3.69 7.151 7.151 0 0 1-.897 3.62 5.923 5.923 0 0 1-2.46 2.381 7.658 7.658 0 0 1-3.589.824 6.034 6.034 0 0 1-2.445-.516 5.32 5.32 0 0 1-1.934-1.403v7.775h-3.394V10.642h2.93l.3 1.919a7.64 7.64 0 0 1 2.31-1.645 6.683 6.683 0 0 1 2.855-.603 6.234 6.234 0 0 1 3.241.85zm-2.463 9.71a4.202 4.202 0 0 0 1.527-1.449c.385-.621.584-1.34.574-2.073a4.112 4.112 0 0 0-1.133-2.972 3.73 3.73 0 0 0-2.795-1.174 4.14 4.14 0 0 0-2.493.73 4.093 4.093 0 0 0-1.465 2.043v2.592a3.59 3.59 0 0 0 1.315 2.043 3.774 3.774 0 0 0 2.392.793 4.156 4.156 0 0 0 2.078-.537v.003z"/>
        <path d="M114.269 0v23.782h-3.381V0zM129.648 10.886v12.896h-3.053l-.212-2.317a5.05 5.05 0 0 1-1.961 2.088 5.64 5.64 0 0 1-2.963.778 4.113 4.113 0 0 1-2.915-1.083 3.74 3.74 0 0 1-1.196-2.788v-9.574h3.385v8.352c.06 1.424.757 2.146 2.092 2.166.987 0 1.808-.457 2.464-1.373a5.771 5.771 0 0 0 .975-3.436v-5.709h3.384zM140.674 23.782l-3.232-4.27-2.99 4.27h-3.414l4.712-6.463-4.864-6.433h4.185l3.113 4.146 2.598-4.146h3.38l-4.394 6.219 4.984 6.677z"/>
    </g>
</svg>
